<svg xmlns="http://www.w3.org/2000/svg" viewBox="0 0 64 64" id="Location">
  <path fill-rule="evenodd" d="M32.037 0C14.33 0 0 14.33 0 32.037 0 49.67 14.33 64 32.037 64 49.67 64 64 49.669 64 32.037 64 14.33 49.669 0 32.037 0zM32 11.328c8.284 0 15 6.716 15 15 0 6.606-9.537 21.114-13.402 26.723-.872 1.265-2.324 1.265-3.196 0C26.537 47.44 17 32.933 17 26.328c0-8.284 6.716-15 15-15zm0 7a8 8 0 0 0-8 8 8 8 0 0 0 8 8 8 8 0 0 0 8-8 8 8 0 0 0-8-8z" fill="#245533" class="color000000 svgShape"></path>
</svg>
