<svg xmlns="http://www.w3.org/2000/svg" viewBox="0 0 512 512" id="Website">
  <path d="M157.114 188.969h28.438c3.269-13.719 7.51-26.333 12.545-37.485a119.965 119.965 0 0 0-26.552 20.061 120.639 120.639 0 0 0-14.431 17.424zm0 134.062a120.704 120.704 0 0 0 14.431 17.424 119.965 119.965 0 0 0 26.552 20.061c-5.036-11.152-9.276-23.766-12.545-37.485h-28.438zm197.772-134.062a120.704 120.704 0 0 0-14.431-17.424 119.965 119.965 0 0 0-26.552-20.061c5.036 11.152 9.276 23.766 12.545 37.485h28.438zm-76.434-26.926c-9.626-19.252-19.283-25.48-22.452-25.48s-12.826 6.228-22.452 25.48c-3.987 7.975-7.409 17.059-10.208 26.926h65.32c-2.8-9.867-6.221-18.952-10.208-26.926zm-44.904 187.914c9.626 19.252 19.283 25.48 22.452 25.48s12.826-6.228 22.452-25.48c3.987-7.975 7.409-17.059 10.208-26.926h-65.32c2.8 9.867 6.221 18.952 10.208 26.926zM178 256c0-10.428.516-20.614 1.492-30.469h-39.021c-2.573 9.825-3.909 20.043-3.909 30.469s1.335 20.644 3.909 30.469h39.021A309.448 309.448 0 0 1 178 256zm156 0c0 10.428-.516 20.614-1.492 30.469h39.021c2.573-9.825 3.909-20.043 3.909-30.469s-1.335-20.644-3.909-30.469h-39.021A309.448 309.448 0 0 1 334 256z" fill="#245533" class="color000000 svgShape"></path>
  <path d="M256 0C114.615 0 0 114.615 0 256s114.615 256 256 256 256-114.615 256-256S397.385 0 256 0zm0 412c-86.156 0-156-69.844-156-156s69.844-156 156-156 156 69.844 156 156-69.844 156-156 156z" fill="#245533" class="color000000 svgShape"></path>
  <path d="M216.277 225.531c-1.125 9.901-1.714 20.127-1.714 30.469s.589 20.568 1.714 30.469h79.447c1.125-9.901 1.714-20.127 1.714-30.469s-.589-20.568-1.714-30.469h-79.447zm97.626 134.985a119.965 119.965 0 0 0 26.552-20.061 120.704 120.704 0 0 0 14.431-17.424h-28.438c-3.269 13.719-7.509 26.333-12.545 37.485z" fill="#245533" class="color000000 svgShape"></path>
</svg>
